<svg xmlns="http://www.w3.org/2000/svg" viewBox="0 0 1200 700">
  <!-- Definitions for gradients and filters -->
  <defs>
    <!-- Background gradient -->
    <linearGradient id="bgGradient" x1="0%" y1="0%" x2="100%" y2="100%">
      <stop offset="0%" stop-color="#1A237E" />
      <stop offset="100%" stop-color="#0D47A1" />
    </linearGradient>
    
    <!-- Spark gradient -->
    <linearGradient id="sparkGradient" x1="0%" y1="0%" x2="100%" y2="100%">
      <stop offset="0%" stop-color="#FF7043" />
      <stop offset="100%" stop-color="#E64A19" />
    </linearGradient>
    
    <!-- Data flow gradient -->
    <linearGradient id="dataFlowGradient" x1="0%" y1="0%" x2="100%" y2="0%">
      <stop offset="0%" stop-color="#4FC3F7" />
      <stop offset="50%" stop-color="#2196F3" />
      <stop offset="100%" stop-color="#1976D2" />
    </linearGradient>
    
    <!-- Team color gradients -->
    <linearGradient id="mumbaiColors" x1="0%" y1="0%" x2="100%" y2="100%">
      <stop offset="0%" stop-color="#004BA0" />
      <stop offset="100%" stop-color="#0078BC" />
    </linearGradient>
    
    <linearGradient id="chennaiColors" x1="0%" y1="0%" x2="100%" y2="100%">
      <stop offset="0%" stop-color="#FFFF00" />
      <stop offset="100%" stop-color="#FDB913" />
    </linearGradient>
    
    <linearGradient id="bangaloreColors" x1="0%" y1="0%" x2="100%" y2="100%">
      <stop offset="0%" stop-color="#EC1C24" />
      <stop offset="100%" stop-color="#A50044" />
    </linearGradient>
    
    <!-- Glow filter -->
    <filter id="glow" x="-20%" y="-20%" width="140%" height="140%">
      <feGaussianBlur stdDeviation="5" result="blur" />
      <feComposite in="SourceGraphic" in2="blur" operator="over" />
    </filter>
  </defs>
  
  <!-- Main Background -->
  <rect width="1200" height="700" fill="url(#bgGradient)" />
  
  <!-- Cricket Stadium Silhouette -->
  <path d="M0,550 C200,500 1000,500 1200,550 L1200,700 L0,700 Z" fill="#263238" opacity="0.9" />
  <path d="M100,530 C300,490 900,490 1100,530" stroke="#FFFFFF" stroke-width="2" fill="none" opacity="0.6" />
  <path d="M200,520 C400,480 800,480 1000,520" stroke="#FFFFFF" stroke-width="2" fill="none" opacity="0.6" />
  
  <!-- Cricket Pitch in the Stadium -->
  <rect x="500" y="560" width="200" height="80" fill="#D7CCC8" opacity="0.8" />
  <line x1="600" y1="560" x2="600" y2="640" stroke="#8D6E63" stroke-width="2" />
  <rect x="590" y="560" width="20" height="10" fill="#8D6E63" />
  <rect x="590" y="630" width="20" height="10" fill="#8D6E63" />
  
  <!-- Data Pipeline Path -->
  <path d="M100,250 C300,200 500,300 700,250 C900,200 1000,250 1100,200" stroke="url(#dataFlowGradient)" stroke-width="15" fill="none" stroke-linecap="round" filter="url(#glow)" />
  
  <!-- Cricket Ball at Start of Pipeline -->
  <circle cx="100" cy="250" r="40" fill="#D32F2F" stroke="#B71C1C" stroke-width="2" />
  <path d="M80,235 Q100,215 120,235" stroke="white" stroke-width="2" fill="none" />
  <path d="M80,265 Q100,285 120,265" stroke="white" stroke-width="2" fill="none" />
  
  <!-- Raw Data (Cricket Scorecard) -->
  <rect x="160" y="200" width="120" height="100" fill="white" opacity="0.9" rx="5" ry="5" />
  <line x1="170" y1="220" x2="270" y2="220" stroke="#37474F" stroke-width="2" />
  <line x1="170" y1="240" x2="270" y2="240" stroke="#37474F" stroke-width="1" />
  <line x1="170" y1="260" x2="270" y2="260" stroke="#37474F" stroke-width="1" />
  <line x1="170" y1="280" x2="270" y2="280" stroke="#37474F" stroke-width="1" />
  <text x="220" y="190" font-family="Arial, sans-serif" font-size="12" font-weight="bold" text-anchor="middle">RAW MATCH DATA</text>
  
  <!-- PySpark Logo -->
  <g transform="translate(350, 250)">
    <circle cx="0" cy="0" r="50" fill="url(#sparkGradient)" filter="url(#glow)" />
    <text x="0" y="5" font-family="Arial, sans-serif" font-size="18" font-weight="bold" text-anchor="middle" fill="white">PYSPARK</text>
  </g>
  
  <!-- SparkSQL Logo -->
  <g transform="translate(500, 250)">
    <rect x="-40" y="-25" width="80" height="50" rx="5" ry="5" fill="#1565C0" filter="url(#glow)" />
    <text x="0" y="5" font-family="Arial, sans-serif" font-size="18" font-weight="bold" text-anchor="middle" fill="white">SparkSQL</text>
  </g>
  
  <!-- Code Snippet -->
  <rect x="400" y="320" width="200" height="100" fill="#263238" opacity="0.9" rx="5" ry="5" />
  <text x="410" y="340" font-family="Courier New, monospace" font-size="10" fill="#4FC3F7">df = spark.read.csv('ipl_data.csv')</text>
  <text x="410" y="355" font-family="Courier New, monospace" font-size="10" fill="#4FC3F7">df = df.filter(col('season') > 2015)</text>
  <text x="410" y="370" font-family="Courier New, monospace" font-size="10" fill="#4FC3F7">result = df.groupBy('team').agg(</text>
  <text x="410" y="385" font-family="Courier New, monospace" font-size="10" fill="#4FC3F7">  avg('runs').alias('avg_runs'),</text>
  <text x="410" y="400" font-family="Courier New, monospace" font-size="10" fill="#4FC3F7">  sum('wins').alias('total_wins'))</text>
  
  <!-- Data Visualization 1: Bar Chart -->
  <g transform="translate(650, 250)">
    <rect x="-60" y="-40" width="120" height="80" fill="white" opacity="0.8" rx="5" ry="5" />
    <rect x="-50" y="20" width="20" height="-30" fill="url(#mumbaiColors)" />
    <rect x="-20" y="20" width="20" height="-50" fill="url(#chennaiColors)" />
    <rect x="10" y="20" width="20" height="-40" fill="url(#bangaloreColors)" />
    <rect x="40" y="20" width="20" height="-20" fill="#4A148C" />
    <text x="0" y="-50" font-family="Arial, sans-serif" font-size="10" font-weight="bold" text-anchor="middle">TEAM PERFORMANCE</text>
  </g>
  
  <!-- Data Visualization 2: Cricket Bat-shaped Chart -->
  <g transform="translate(800, 250)">
    <path d="M-30,40 L30,40 L40,20 L40,-20 C40,-30 30,-40 20,-40 L-20,-40 C-30,-40 -40,-30 -40,-20 L-40,20 Z" fill="white" opacity="0.8" />
    <line x1="-30" y1="0" x2="30" y2="0" stroke="#90A4AE" stroke-width="1" />
    <line x1="-30" y1="-20" x2="30" y2="-20" stroke="#90A4AE" stroke-width="1" />
    <line x1="-30" y1="20" x2="30" y2="20" stroke="#90A4AE" stroke-width="1" />
    <circle cx="-20" cy="-10" r="5" fill="#FF7043" />
    <circle cx="0" cy="10" r="5" fill="#FF7043" />
    <circle cx="20" cy="-30" r="5" fill="#FF7043" />
    <text x="0" y="-50" font-family="Arial, sans-serif" font-size="10" font-weight="bold" text-anchor="middle">PLAYER STATS</text>
  </g>
  
  <!-- Data Visualization 3: Heatmap -->
  <g transform="translate(950, 250)">
    <rect x="-50" y="-40" width="100" height="80" fill="white" opacity="0.8" rx="5" ry="5" />
    <rect x="-40" y="-30" width="20" height="20" fill="#B71C1C" opacity="0.7" />
    <rect x="-20" y="-30" width="20" height="20" fill="#E65100" opacity="0.5" />
    <rect x="0" y="-30" width="20" height="20" fill="#F57F17" opacity="0.3" />
    <rect x="20" y="-30" width="20" height="20" fill="#FFEB3B" opacity="0.2" />
    <rect x="-40" y="-10" width="20" height="20" fill="#E65100" opacity="0.5" />
    <rect x="-20" y="-10" width="20" height="20" fill="#F57F17" opacity="0.4" />
    <rect x="0" y="-10" width="20" height="20" fill="#FFEB3B" opacity="0.3" />
    <rect x="20" y="-10" width="20" height="20" fill="#C5E1A5" opacity="0.2" />
    <rect x="-40" y="10" width="20" height="20" fill="#F57F17" opacity="0.3" />
    <rect x="-20" y="10" width="20" height="20" fill="#FFEB3B" opacity="0.2" />
    <rect x="0" y="10" width="20" height="20" fill="#C5E1A5" opacity="0.3" />
    <rect x="20" y="10" width="20" height="20" fill="#1B5E20" opacity="0.4" />
    <text x="0" y="-50" font-family="Arial, sans-serif" font-size="10" font-weight="bold" text-anchor="middle">PERFORMANCE ZONES</text>
  </g>
  
  <!-- Final Insights Display -->
  <rect x="1050" y="200" width="100" height="100" fill="#FFFFFF" opacity="0.9" rx="10" ry="10" />
  <text x="1100" y="225" font-family="Arial, sans-serif" font-size="10" font-weight="bold" text-anchor="middle" fill="#01579B">MATCH</text>
  <text x="1100" y="240" font-family="Arial, sans-serif" font-size="10" font-weight="bold" text-anchor="middle" fill="#01579B">PREDICTIONS</text>
  <path d="M1075,260 L1125,260 L1115,280 L1085,280 Z" fill="#4CAF50" />
  <text x="1100" y="273" font-family="Arial, sans-serif" font-size="12" font-weight="bold" text-anchor="middle" fill="white">CSK</text>
  <text x="1100" y="295" font-family="Arial, sans-serif" font-size="14" font-weight="bold" text-anchor="middle" fill="#01579B">73.5%</text>
  
  <!-- Team Players in Action -->
  <circle cx="550" cy="580" r="10" fill="url(#chennaiColors)" />
  <circle cx="650" cy="600" r="10" fill="url(#mumbaiColors)" />
  
  <!-- Bat and Ball in Play -->
  <line x1="558" y1="578" x2="580" y2="560" stroke="#5D4037" stroke-width="3" />
  <circle cx="630" cy="570" r="5" fill="#D32F2F" />
  
  <!-- Main Title -->
  <text x="600" y="80" font-family="Arial, sans-serif" font-size="40" font-weight="bold" text-anchor="middle" fill="white" filter="url(#glow)">IPL DATA ANALYSIS</text>
  <text x="600" y="130" font-family="Arial, sans-serif" font-size="30" font-weight="bold" text-anchor="middle" fill="#FFD54F">POWERED BY PYSPARK</text>
  
  <!-- Data Points Animation Along Pipeline -->
  <circle cx="200" cy="235" r="6" fill="#4FC3F7" filter="url(#glow)" />
  <circle cx="280" cy="242" r="6" fill="#29B6F6" filter="url(#glow)" />
  <circle cx="360" cy="230" r="6" fill="#03A9F4" filter="url(#glow)" />
  <circle cx="440" cy="260" r="6" fill="#039BE5" filter="url(#glow)" />
  <circle cx="520" cy="240" r="6" fill="#0288D1" filter="url(#glow)" />
  <circle cx="600" cy="270" r="6" fill="#0277BD" filter="url(#glow)" />
  <circle cx="680" cy="240" r="6" fill="#01579B" filter="url(#glow)" />
  <circle cx="760" cy="255" r="6" fill="#01579B" filter="url(#glow)" />
  <circle cx="840" cy="235" r="6" fill="#0277BD" filter="url(#glow)" />
  <circle cx="920" cy="245" r="6" fill="#0288D1" filter="url(#glow)" />
  <circle cx="1000" cy="225" r="6" fill="#039BE5" filter="url(#glow)" />
  <circle cx="1080" cy="235" r="6" fill="#03A9F4" filter="url(#glow)" />
</svg>
